<svg width="362" height="344" viewBox="0 0 362 344" fill="none" xmlns="http://www.w3.org/2000/svg">
<g clip-path="url(#clip0_6062_13971)">
<path d="M340.151 344C339.723 344 339.375 343.652 339.375 343.225V176.749C339.375 176.321 339.723 175.973 340.151 175.973C340.579 175.973 340.927 176.321 340.927 176.749V343.225C340.927 343.652 340.579 344 340.151 344Z" fill="#231F20"/>
<path d="M327.432 296.256C327.005 296.256 326.656 295.908 326.656 295.48V181.988C326.656 181.56 327.005 181.212 327.432 181.212C327.86 181.212 328.208 181.56 328.208 181.988V295.48C328.208 295.908 327.86 296.256 327.432 296.256Z" fill="#231F20"/>
<path d="M212.508 157.02C201.634 144.065 185.269 142.123 174.086 157.02H212.508Z" fill="#231F20"/>
<path d="M96.5786 60.7868V96.27C96.5786 130.973 115.902 159.105 139.74 159.105C163.577 159.105 182.9 187.236 182.9 221.939C182.9 225.032 181.135 227.538 178.955 227.538H64.7039C28.9694 227.538 0 185.365 0 133.343V57.6302C0 36.9381 11.5221 20.1631 25.7356 20.1631H68.6739C84.0844 20.1631 96.5786 38.3511 96.5786 60.7868Z" fill="#231F20"/>
<path d="M89.6931 339.721H100.047L100.047 213.031H89.6931L89.6931 339.721Z" fill="#231F20"/>
<path d="M133.717 339.87L97.9319 335.642H94.6519L58.1172 339.87V343.225H133.717V339.87Z" fill="#231F20"/>
<path d="M220.328 302.155L227.527 309.733C230.27 312.619 231.815 316.437 231.859 320.415L231.921 326.147L253.089 320.336C248.471 315.409 243.809 310.857 240.681 304.875L234.134 292.348L220.33 302.155H220.328Z" fill="white"/>
<path d="M231.915 326.923C231.747 326.923 231.584 326.87 231.447 326.766C231.256 326.621 231.141 326.396 231.139 326.156L231.077 320.424C231.037 316.629 229.574 313.02 226.959 310.269L219.76 302.691C219.606 302.527 219.529 302.305 219.551 302.082C219.573 301.857 219.689 301.654 219.872 301.524L233.676 291.717C233.859 291.587 234.088 291.543 234.306 291.596C234.525 291.649 234.71 291.792 234.813 291.991L241.362 304.518C244.063 309.683 247.903 313.739 251.97 318.031C252.527 318.619 253.087 319.212 253.647 319.807C253.832 320.006 253.903 320.288 253.828 320.548C253.753 320.81 253.548 321.013 253.286 321.086L232.118 326.896C232.049 326.914 231.981 326.925 231.912 326.925L231.915 326.923ZM221.504 302.269L228.086 309.2C230.971 312.237 232.585 316.219 232.629 320.409L232.68 325.133L251.635 319.931C251.372 319.653 251.108 319.373 250.846 319.097C246.701 314.724 242.789 310.591 239.989 305.237L233.852 293.498L221.504 302.272V302.269Z" fill="#231F20"/>
<path d="M228.05 318.992C227.616 322.071 227.607 327.648 227.547 332.771C227.51 335.987 229.926 338.701 233.115 339.109C242.136 340.266 264.657 341.408 282.085 339.827C283.277 339.719 285.387 338.851 285.975 335.871C287.948 325.869 270.547 323.418 251.471 316.162C250.724 315.877 249.877 316.045 249.304 316.602L247.247 318.595C245.189 320.588 242.136 321.154 239.499 320.03L230.483 317.621C229.419 317.167 228.213 317.848 228.052 318.994L228.05 318.992Z" fill="#59A033"/>
<path d="M262.736 341.373C250.194 341.373 238.436 340.573 233.011 339.876C229.409 339.413 226.724 336.354 226.766 332.758L226.784 331.107C226.832 326.474 226.881 321.682 227.275 318.88C227.388 318.091 227.848 317.416 228.541 317.024C229.215 316.645 230.009 316.592 230.725 316.878L239.692 319.275C239.728 319.283 239.763 319.297 239.796 319.31C242.15 320.315 244.859 319.812 246.698 318.031L248.754 316.039C249.541 315.278 250.71 315.04 251.737 315.43C256.19 317.123 260.468 318.527 264.606 319.885C277.882 324.241 288.371 327.682 286.728 336.014C286.111 339.142 283.876 340.436 282.148 340.593C275.987 341.153 269.255 341.369 262.736 341.369V341.373ZM228.814 319.1C228.433 321.801 228.384 326.542 228.336 331.127L228.318 332.781C228.285 335.589 230.388 337.978 233.209 338.34C241.394 339.391 264.11 340.679 282.009 339.054C282.441 339.014 284.626 338.67 285.207 335.721C286.585 328.736 277.164 325.645 264.125 321.366C259.97 320.004 255.674 318.593 251.188 316.887C250.723 316.711 250.192 316.817 249.837 317.161L247.78 319.151C245.505 321.355 242.157 321.984 239.24 320.765L230.278 318.369C230.242 318.36 230.207 318.346 230.174 318.333C229.89 318.212 229.574 318.23 229.308 318.382C229.039 318.534 228.86 318.796 228.816 319.103L228.814 319.1Z" fill="#231F20"/>
<path d="M228.037 331.786C228.037 331.786 228.026 332.306 228.024 332.555C227.986 335.772 230.402 338.485 233.592 338.893C242.612 340.05 264.658 341.406 282.083 339.823C283.276 339.715 285.385 338.847 285.974 335.866C286.154 334.954 286.042 333.307 286.042 333.307L284.805 333.369C267.197 334.237 249.547 333.814 232.001 332.106L228.037 331.786Z" fill="#59A033"/>
<path d="M264.232 341.324C251.184 341.324 238.961 340.365 233.503 339.664C229.901 339.201 227.216 336.142 227.258 332.549L227.272 331.773C227.276 331.559 227.369 331.356 227.527 331.213C227.686 331.069 227.898 330.997 228.109 331.014L232.073 331.334C249.535 333.036 267.265 333.461 284.778 332.597L286.015 332.535C286.434 332.515 286.8 332.835 286.828 333.258C286.842 333.437 286.941 335.035 286.747 336.02C286.13 339.148 283.894 340.442 282.166 340.599C276.4 341.121 270.23 341.324 264.236 341.324H264.232ZM228.808 332.626C228.808 335.408 230.9 337.764 233.699 338.123C241.611 339.14 263.83 340.702 282.021 339.051C282.453 339.012 284.637 338.668 285.219 335.718C285.301 335.304 285.314 334.656 285.305 334.122L284.853 334.144C267.265 335.013 249.46 334.585 231.934 332.877L228.808 332.623V332.626Z" fill="#231F20"/>
<path d="M255.84 327.737C255.641 327.737 255.443 327.662 255.291 327.51C254.986 327.206 254.986 326.717 255.291 326.412L261.985 319.716C262.287 319.411 262.779 319.414 263.083 319.716C263.387 320.02 263.387 320.509 263.083 320.813L256.388 327.51C256.236 327.662 256.038 327.737 255.84 327.737Z" fill="#231F20"/>
<path d="M262.424 328.433C262.23 328.433 262.036 328.361 261.886 328.217C261.578 327.92 261.569 327.428 261.864 327.12L267.212 321.563C267.509 321.254 268.001 321.245 268.31 321.543C268.618 321.84 268.627 322.332 268.332 322.64L262.984 328.198C262.832 328.356 262.629 328.436 262.424 328.436V328.433Z" fill="#231F20"/>
<path d="M159.914 305.21C165.881 296.796 171.504 279.389 171.504 279.389L184.81 288.658L177.776 300.566C175.424 303.636 175.415 308.272 176.374 312.017L178.907 318.965L159.916 305.208L159.914 305.21Z" fill="white"/>
<path d="M178.908 319.743C178.749 319.743 178.588 319.695 178.454 319.595L159.461 305.838C159.117 305.589 159.038 305.109 159.283 304.76C165.111 296.54 170.712 279.322 170.769 279.15C170.844 278.917 171.027 278.731 171.261 278.654C171.495 278.577 171.75 278.612 171.953 278.753L185.258 288.023C185.591 288.254 185.688 288.704 185.483 289.054L178.449 300.962C178.434 300.989 178.416 301.015 178.396 301.039C176.505 303.506 176.031 307.54 177.131 311.827L179.64 318.703C179.756 319.022 179.651 319.382 179.377 319.589C179.238 319.692 179.075 319.745 178.91 319.745L178.908 319.743ZM160.987 305.027L177.312 316.853L175.648 312.286C174.415 307.489 174.98 302.977 177.133 300.133L183.777 288.885L171.918 280.621C170.659 284.361 166.034 297.539 160.987 305.027Z" fill="#231F20"/>
<path d="M160.216 300.521C158.29 302.962 154.803 307.545 152.168 311.942C150.517 314.702 151.236 318.262 153.784 320.222C157.225 322.867 167.804 329.614 174.697 333.957C178.764 336.518 183.415 338 188.216 338.266L195.023 338.646C197.201 338.767 199.394 338.571 201.495 337.982C203.587 337.398 205.701 336.432 205.791 334.918C206.031 330.91 202.063 328.32 198.587 326.828C194.664 325.144 191.205 322.541 188.39 319.329C185.449 315.976 181.87 311.832 179.346 308.706C178.845 308.085 178.032 307.811 177.258 308.003L174.478 308.686C171.697 309.372 168.774 308.32 167.063 306.021L163.003 300.563C162.313 299.635 160.931 299.611 160.214 300.519L160.216 300.521Z" fill="#59A033"/>
<path d="M196.242 339.457C195.823 339.457 195.402 339.446 194.976 339.422L188.169 339.043C183.249 338.769 178.446 337.237 174.28 334.614C166.565 329.753 156.665 323.418 153.308 320.837C150.429 318.624 149.653 314.627 151.498 311.543C154.17 307.08 157.723 302.42 159.603 300.039C160.095 299.417 160.851 299.058 161.622 299.078C162.418 299.089 163.148 299.461 163.622 300.101L167.682 305.559C169.21 307.613 171.804 308.543 174.289 307.933L177.068 307.249C178.129 306.987 179.259 307.368 179.945 308.219C182.544 311.438 186.287 315.758 188.969 318.818C191.765 322.005 195.195 324.529 198.889 326.114C204.12 328.36 206.774 331.42 206.56 334.965C206.463 336.587 204.827 337.854 201.697 338.73C199.971 339.212 198.14 339.455 196.239 339.455L196.242 339.457ZM161.587 300.632C161.287 300.632 161.01 300.766 160.822 301.002C158.966 303.354 155.459 307.953 152.832 312.341C151.39 314.751 152.003 317.874 154.256 319.607C157.738 322.285 168.815 329.337 175.109 333.3C179.052 335.785 183.598 337.233 188.257 337.493L195.064 337.872C197.251 337.993 199.343 337.779 201.283 337.237C203.604 336.589 204.964 335.727 205.015 334.874C205.229 331.297 201.47 328.914 198.281 327.543C194.377 325.865 190.753 323.204 187.806 319.843C185.114 316.772 181.356 312.434 178.741 309.196C178.433 308.812 177.921 308.643 177.443 308.759L174.663 309.443C171.573 310.205 168.344 309.046 166.441 306.489L162.381 301.031C162.196 300.782 161.913 300.636 161.605 300.634C161.6 300.634 161.596 300.634 161.589 300.634L161.587 300.632Z" fill="#231F20"/>
<path d="M152.567 311.285C152.567 311.285 152.296 311.728 152.168 311.944C150.517 314.704 151.236 318.264 153.784 320.224C159.114 324.324 169.735 331.779 181.442 338.152C188.103 341.778 199.905 340.169 202.421 339.794C204.171 339.534 205.621 338.35 205.679 336.582L205.771 333.756C205.771 333.756 190.356 335.983 184.563 332.229C174.284 325.567 164.442 319.858 154.505 312.685L152.57 311.287L152.567 311.285Z" fill="#59A033"/>
<path d="M193.519 341.253C189.232 341.253 184.521 340.711 181.069 338.833C170.056 332.839 159.509 325.607 153.308 320.839C150.429 318.626 149.653 314.629 151.498 311.545L151.901 310.882C152.014 310.697 152.199 310.569 152.411 310.525C152.622 310.483 152.843 310.529 153.019 310.657L154.954 312.055C161.631 316.873 168.143 320.953 175.036 325.272C178.274 327.302 181.625 329.401 184.982 331.576C190.468 335.132 205.506 333.009 205.659 332.987C205.888 332.954 206.117 333.024 206.287 333.177C206.459 333.329 206.551 333.551 206.545 333.781L206.452 336.606C206.386 338.632 204.81 340.222 202.533 340.561C200.542 340.856 197.187 341.253 193.521 341.253H193.519ZM152.792 312.407C151.399 314.808 152.02 317.892 154.253 319.609C160.406 324.342 170.876 331.519 181.81 337.471C187.969 340.823 199.052 339.51 202.301 339.027C203.467 338.853 204.847 338.103 204.898 336.558L204.962 334.645C201.495 335.066 189.338 336.252 184.135 332.879C180.789 330.71 177.443 328.614 174.209 326.588C167.294 322.254 160.761 318.161 154.044 313.313L152.79 312.407H152.792Z" fill="#231F20"/>
<path d="M177.69 321.027C177.346 321.027 177.031 320.795 176.94 320.449C176.83 320.035 177.079 319.609 177.493 319.501L186.65 317.09C187.067 316.979 187.49 317.228 187.598 317.643C187.708 318.057 187.459 318.483 187.045 318.591L177.888 321.002C177.822 321.02 177.756 321.029 177.69 321.029V321.027Z" fill="#231F20"/>
<path d="M183.025 324.939C182.685 324.939 182.374 324.716 182.28 324.375C182.163 323.963 182.403 323.533 182.815 323.416L190.235 321.311C190.649 321.194 191.077 321.434 191.194 321.846C191.311 322.259 191.07 322.688 190.658 322.805L183.238 324.91C183.168 324.93 183.097 324.939 183.027 324.939H183.025Z" fill="#231F20"/>
<path d="M115.898 164.814C115.898 164.814 199.788 162.019 229.611 179.77C257.95 196.64 181.089 299.959 181.089 299.959L165.094 291.204L185.312 221.924C186.721 216.845 183.765 211.581 178.695 210.139L106.289 189.577L115.9 164.816L115.898 164.814Z" fill="white"/>
<path d="M181.085 300.735C180.96 300.735 180.83 300.704 180.713 300.64L164.718 291.885C164.399 291.71 164.244 291.336 164.346 290.987L184.564 221.707C185.851 217.065 183.122 212.207 178.478 210.888L106.072 190.326C105.862 190.267 105.686 190.121 105.589 189.925C105.492 189.729 105.481 189.502 105.56 189.299L115.171 164.538C115.284 164.249 115.559 164.053 115.868 164.042C119.302 163.927 200.325 161.441 230.002 179.106C233.28 181.057 235.369 184.194 236.216 188.431C242.245 218.608 184.18 297.098 181.705 300.424C181.555 300.627 181.321 300.737 181.081 300.737L181.085 300.735ZM166.01 290.822L180.863 298.952C186.1 291.81 240.336 216.957 234.697 188.73C233.941 184.943 232.094 182.153 229.211 180.436C201.129 163.72 123.51 165.384 116.432 165.574L107.315 189.061L178.901 209.392C184.363 210.944 187.573 216.657 186.056 222.128L166.01 290.82V290.822Z" fill="#231F20"/>
<path d="M72.8185 212.489C85.6368 216.558 98.6071 216.027 130.663 215.591C139.771 215.467 152.657 223.57 156.795 231.684C166.289 250.304 192.296 289.892 225.771 311.623L241.759 303.008L195.497 205.091C191.771 196.704 184.803 190.186 176.187 187.027L95.3138 157.372C95.3138 157.372 74.1852 150.772 61.8894 173.159C59.6939 177.156 58.2016 180.762 57.2295 183.987C53.9009 195.046 61.8057 208.997 72.8141 212.491L72.8185 212.489Z" fill="white"/>
<path d="M225.773 312.399C225.626 312.399 225.478 312.357 225.35 312.273C191.919 290.572 166.095 251.628 156.105 232.038C152.012 224.009 139.396 216.228 130.674 216.367L123.829 216.464C96.8726 216.854 84.568 217.033 72.5852 213.23C61.0852 209.58 53.1143 194.985 56.4935 183.763C57.545 180.267 59.1343 176.574 61.2152 172.785C73.6719 150.105 95.3317 156.563 95.55 156.632L176.458 186.3C185.22 189.514 192.42 196.248 196.209 204.779L242.462 302.68C242.639 303.053 242.491 303.5 242.13 303.694L226.141 312.309C226.027 312.37 225.899 312.401 225.773 312.401V312.399ZM130.866 214.813C140.084 214.813 153.207 222.934 157.49 231.332C166.693 249.377 192.772 289.097 225.813 310.721L240.747 302.676L194.8 205.425C191.174 197.26 184.297 190.828 175.924 187.757L95.0518 158.102C94.2494 157.853 74.4082 151.987 62.5753 173.535C60.5473 177.229 58.9999 180.822 57.9792 184.212C54.8248 194.694 62.2909 208.337 73.0547 211.753C84.7994 215.481 97.0247 215.305 123.807 214.914L130.654 214.817C130.725 214.817 130.795 214.817 130.866 214.817V214.813Z" fill="#231F20"/>
<path d="M225.005 15.8801L232.793 6.48076C233.368 5.78639 234.499 6.21404 234.466 7.1134C234.411 8.59913 234.279 10.464 233.968 12.0599C233.767 13.0916 234.572 14.0394 235.623 14.0042C236.002 13.9909 236.364 13.9843 236.697 13.9821C238.35 13.9711 239.915 13.2723 241.019 12.0423C242.32 10.5963 243.96 8.81736 244.584 8.31477C245.684 7.43083 247.095 6.07075 248.706 5.88338L248.754 5.87898C250.436 5.69602 251.605 7.5168 250.736 8.96946L248.399 12.8799C245.781 17.2622 241.828 20.6899 237.124 22.6672L230.108 25.6166C228.942 26.106 228.188 27.2522 228.199 28.5175L228.45 55.7918L219.461 46.5336C219.461 46.5336 220.31 30.1068 222.075 21.8648C222.547 19.6627 223.57 17.6171 225.007 15.8823L225.005 15.8801Z" fill="white"/>
<path d="M228.446 56.5683C228.241 56.5683 228.038 56.4867 227.888 56.3324L218.899 47.0742C218.749 46.9199 218.67 46.7083 218.681 46.4945C218.716 45.8222 219.554 29.9113 221.31 21.7023C221.8 19.423 222.869 17.2385 224.403 15.3869L232.191 5.9876C232.669 5.41006 233.432 5.20947 234.133 5.47619C234.832 5.74291 235.266 6.3976 235.237 7.14267C235.163 9.13539 234.991 10.8415 234.724 12.2104C234.673 12.4683 234.741 12.7329 234.913 12.9313C235.083 13.1296 235.339 13.2399 235.592 13.2288C235.98 13.2156 236.346 13.209 236.688 13.2068C238.119 13.198 239.485 12.5852 240.44 11.5249C242.329 9.42636 243.559 8.14344 244.094 7.71139C244.244 7.59015 244.401 7.46009 244.562 7.32563C245.646 6.42405 246.998 5.30205 248.613 5.11247C249.738 4.98903 250.769 5.4828 251.353 6.39099C251.935 7.29918 251.953 8.43882 251.4 9.36684L249.063 13.2773C246.341 17.8315 242.313 21.3276 237.422 23.382L230.406 26.3314C229.526 26.7017 228.964 27.557 228.973 28.5115L229.224 55.7858C229.226 56.1032 229.037 56.3898 228.743 56.511C228.649 56.5507 228.547 56.5683 228.448 56.5683H228.446ZM220.25 46.2366L227.652 53.8614L227.419 28.5269C227.403 26.9398 228.34 25.518 229.804 24.903L236.82 21.9536C241.405 20.027 245.179 16.7514 247.729 12.4816L250.066 8.57108C250.32 8.14785 250.311 7.64526 250.046 7.23084C249.779 6.81422 249.328 6.6004 248.836 6.6511C247.637 6.78997 246.53 7.70918 245.556 8.52038C245.388 8.66146 245.225 8.79592 245.069 8.92157C244.802 9.13539 244 9.89148 241.595 12.5631C240.352 13.9475 238.566 14.7476 236.701 14.7587C236.373 14.7587 236.02 14.7675 235.647 14.7807C234.913 14.8094 234.215 14.4985 233.736 13.9386C233.258 13.3765 233.064 12.6381 233.205 11.9129C233.452 10.641 233.622 8.97227 233.69 7.08536C233.69 7.0567 233.694 6.96853 233.584 6.92444C233.47 6.88035 233.41 6.95089 233.39 6.97514L225.602 16.3744C224.227 18.0365 223.268 19.9895 222.831 22.0241C221.238 29.4638 220.385 43.8515 220.252 46.2344L220.25 46.2366Z" fill="#231F20"/>
<path d="M74.7188 36.0721C74.7188 36.0721 85.9961 34.2403 95.369 29.4436C99.2398 27.4641 109.657 23.8821 115.993 31.6127C120.631 37.2734 126.529 44.885 133.242 51.5289C136.028 54.2865 136.936 58.4858 136.936 58.4858C136.936 58.4858 128.088 56.8303 111.952 51.5245C95.8165 46.2186 74.7188 36.0698 74.7188 36.0698V36.0721Z" fill="#F9C53E"/>
<path d="M136.94 59.2642C136.894 59.2642 136.845 59.2598 136.797 59.251C136.709 59.2333 127.713 57.525 111.714 52.2632C95.7146 47.0015 74.597 36.8725 74.3854 36.7711C74.079 36.6235 73.9049 36.2972 73.9534 35.96C74.0019 35.6249 74.262 35.3604 74.597 35.3053C74.7094 35.2876 85.8678 33.436 95.018 28.7518C96.4332 28.0265 109.071 21.936 116.596 31.1214C117.372 32.0671 118.181 33.0679 119.025 34.1083C123.125 39.1717 128.231 45.4739 133.792 50.9781C136.709 53.8636 137.661 58.14 137.701 58.3207C137.756 58.5742 137.681 58.8388 137.498 59.0261C137.35 59.1782 137.149 59.262 136.94 59.262V59.2642ZM77.1959 36.3832C82.9647 39.0813 99.2746 46.5408 112.199 50.7885C124.693 54.8974 132.871 56.824 135.836 57.4655C135.373 56.0833 134.405 53.771 132.697 52.0825C127.076 46.5187 121.942 40.1791 117.817 35.087C116.975 34.0488 116.169 33.0502 115.395 32.1068C108.641 23.8625 97.0261 29.4682 95.7256 30.1361C88.9142 33.6212 81.0381 35.572 77.1959 36.3832Z" fill="#231F20"/>
<path d="M77.6288 62.7114C77.6288 62.7114 69.8916 62.4756 66.3206 57.6591C59.0463 47.8542 58.1844 28.1496 98.4223 38.8804C111.556 42.383 124.392 54.152 124.392 54.152L135.389 66.2913L77.631 62.7114H77.6288Z" fill="#F9C53E"/>
<path d="M230.718 30.5781H218.224C218.224 30.5781 215.594 59.5938 182.871 66.3104C161.085 70.7808 150.802 66.3435 147.905 64.6836C147.74 64.5822 147.434 64.3838 147.015 64.1105C145.099 62.8673 140.915 60.1405 137.781 58.4498C126.929 52.5928 107.425 43.0392 91.1394 52.8111C47.2576 79.1397 39.5689 139.424 53.1873 181.154C54.0999 183.954 55.9714 195.586 58.4424 197.308C73.9654 208.115 99.1345 195.348 99.1345 195.348C117.499 188.556 130.174 174.162 135.537 167.113C136.873 165.356 136.487 162.891 134.748 161.529C131.697 159.142 127.784 153.011 127.361 137.283C127.138 129.015 130.134 119.314 134.016 109.727C143.091 115.319 159.67 118.846 189.305 109.015C245.901 90.2363 230.72 30.5781 230.72 30.5781H230.718Z" fill="#59A033"/>
<path d="M73.9908 202.462C68.4381 202.462 62.7928 201.289 57.9895 197.943C56.0894 196.62 54.7668 191.354 53.356 185.125C52.9901 183.509 52.6727 182.111 52.439 181.395C38.3776 138.313 47.0186 78.3731 90.7284 52.1459C106.256 42.8282 124.221 50.2546 138.139 57.767C141.201 59.4202 145.279 62.0654 147.239 63.3373L147.428 63.4608C147.843 63.7297 148.143 63.9237 148.306 64.0251C150.878 65.4976 161.022 70.001 182.707 65.5505C214.458 59.0344 217.416 30.7925 217.442 30.5081C217.48 30.1091 217.815 29.8027 218.216 29.8027H230.71C231.065 29.8027 231.376 30.043 231.462 30.3869C231.5 30.5368 235.262 45.6673 231.989 62.9009C228.958 78.8558 219.133 99.9337 189.54 109.754C159.839 119.607 143.227 115.942 134.387 110.861C129.935 122.03 127.942 130.437 128.127 137.266C128.539 152.553 132.212 158.567 135.216 160.921C137.324 162.572 137.731 165.5 136.144 167.585C130.257 175.324 117.661 189.309 99.4355 196.063C98.3862 196.592 86.4189 202.464 73.993 202.464L73.9908 202.462ZM106.846 49.3574C101.611 49.3574 96.4288 50.5389 91.5285 53.4795C48.5065 79.2923 40.0396 138.404 53.9159 180.914C54.1716 181.699 54.4802 183.059 54.8704 184.783C55.7257 188.559 57.315 195.584 58.8757 196.671C73.8343 207.087 98.5251 194.782 98.772 194.656C98.7984 194.643 98.8249 194.63 98.8535 194.621C116.733 188.01 129.117 174.255 134.908 166.644C135.975 165.239 135.69 163.262 134.26 162.142C130.991 159.583 127.005 153.197 126.575 137.308C126.379 130.089 128.513 121.232 133.285 109.439C133.371 109.227 133.545 109.064 133.764 108.994C133.98 108.923 134.218 108.949 134.412 109.071C142.757 114.211 159.01 118.25 189.051 108.282C212.216 100.595 226.147 85.2484 230.455 62.665C233.318 47.6557 230.735 34.2709 230.093 31.3568H218.897C218.207 35.8955 213.06 60.9081 183.022 67.0737C161.41 71.5088 150.993 67.3536 147.514 65.3609C147.325 65.2441 147.014 65.0435 146.586 64.7657L146.394 64.6401C144.452 63.3792 140.412 60.7582 137.407 59.1358C128.326 54.2334 117.485 49.3596 106.853 49.3596L106.846 49.3574Z" fill="#231F20"/>
<path d="M128.057 73.2231C129.051 81.0044 131.43 90.8909 137.071 101.042C155.069 133.424 184.118 142.671 191.24 144.077L180.849 152.775C180.849 152.775 114.161 159.318 92.2302 93.1636C92.2302 93.1636 83.7832 67.0069 102.564 60.5438C106.475 59.1991 111.615 58.4144 116.533 60.33C125.053 63.6475 127.722 72.0989 128.057 73.2231Z" fill="#59A033"/>
<path d="M176.012 153.722C169.65 153.722 157.835 153.005 144.878 148.636C127.139 142.658 103.553 128.434 91.9095 94.6302C91.7706 94.2246 91.9845 93.7837 92.3901 93.6426C92.7957 93.5038 93.2365 93.7176 93.3754 94.1232C104.805 127.305 127.928 141.272 145.316 147.144C162.977 153.111 178.469 152.181 180.541 152.022L189.551 144.479C182.594 142.698 154.325 133.684 136.391 101.417C131.638 92.8689 128.576 83.4145 127.287 73.3208C127.232 72.8954 127.534 72.5074 127.957 72.4523C128.378 72.3994 128.77 72.6992 128.826 73.1247C130.091 83.0221 133.093 92.2892 137.749 100.666C157.537 136.27 190.018 143.046 191.391 143.317C191.684 143.375 191.918 143.597 191.993 143.886C192.068 144.175 191.969 144.481 191.74 144.673L181.348 153.371C181.229 153.471 181.082 153.532 180.925 153.548C180.87 153.552 179.071 153.72 176.007 153.72L176.012 153.722Z" fill="#231F20"/>
<path d="M145.432 103.494C145.305 103.494 145.177 103.463 145.056 103.397C144.681 103.189 144.546 102.715 144.754 102.341C151.281 90.5784 149.768 77.5486 149.751 77.4185C149.698 76.9931 150 76.6051 150.425 76.5544C150.851 76.5037 151.239 76.8035 151.289 77.2289C151.358 77.7822 152.879 90.8958 146.109 103.095C145.968 103.35 145.704 103.494 145.43 103.494H145.432Z" fill="#231F20"/>
<path d="M56.419 194.458C56.0994 194.458 55.7996 194.258 55.6871 193.94C54.7613 191.306 53.9854 187.881 53.3616 185.127C52.9957 183.509 52.6782 182.112 52.4446 181.395C41.1473 146.781 43.5324 95.2632 75.4667 63.9484C75.7731 63.6486 76.2646 63.653 76.5644 63.9594C76.8642 64.2658 76.8598 64.7574 76.5534 65.0572C45.0909 95.9091 42.7653 146.741 53.9193 180.915C54.175 181.7 54.4836 183.062 54.8737 184.786C55.4888 187.499 56.2537 190.876 57.1486 193.427C57.2897 193.83 57.0781 194.273 56.6747 194.417C56.5887 194.447 56.5028 194.461 56.4168 194.461L56.419 194.458Z" fill="#231F20"/>
<path d="M77.6341 63.4875C77.6341 63.4875 77.6187 63.4875 77.6099 63.4875C77.2792 63.4765 69.4538 63.1811 65.702 58.1221C62.0539 53.2043 59.9421 45.9277 63.4514 40.7586C66.6014 36.1207 75.2623 31.8994 98.626 38.1288C106.645 40.267 114.521 45.3987 119.717 49.3246C120.059 49.5825 120.127 50.0697 119.869 50.4114C119.611 50.753 119.124 50.8214 118.782 50.5613C113.699 46.7169 106.006 41.6998 98.227 39.6278C80.6827 34.9502 68.7881 35.66 64.7343 41.6293C61.6703 46.1438 63.7336 52.8626 66.9475 57.1941C70.2584 61.6557 77.5834 61.929 77.6562 61.9334C78.0838 61.9467 78.4211 62.3038 78.4078 62.7336C78.3946 63.1546 78.0507 63.4853 77.6319 63.4853L77.6341 63.4875Z" fill="#231F20"/>
<path d="M177.688 152.855C178.269 152.509 183.622 144.214 189.498 142.485C195.377 140.757 208.165 153.661 208.165 153.661L177.688 152.855Z" fill="white"/>
<path d="M208.166 154.437C208.166 154.437 208.153 154.437 208.146 154.437L177.669 153.631C177.323 153.622 177.025 153.386 176.939 153.051C176.858 152.738 176.979 152.412 177.237 152.227C177.354 152.112 177.693 151.68 178.022 151.263C179.926 148.845 184.388 143.182 189.284 141.743C195.425 139.937 207.377 151.761 208.719 153.117C208.942 153.342 209.006 153.681 208.88 153.972C208.757 154.257 208.477 154.44 208.168 154.44L208.166 154.437ZM179.318 152.121L206.197 152.833C201.952 148.843 193.666 142.071 189.718 143.231C185.36 144.511 181.172 149.766 179.315 152.121H179.318Z" fill="#231F20"/>
<path d="M130.513 59.4494C133.123 59.9983 135.752 58.6007 136.755 56.1297L140.697 46.4284C141.091 45.4915 142.041 44.9118 143.055 44.9934L148.892 45.4585C150.138 45.5577 151.295 44.8148 151.725 43.6421L154.597 35.7925C154.602 35.7792 154.613 35.7704 154.624 35.766L157.622 34.8292C158.219 34.644 158.556 34.0136 158.384 33.414L156.616 27.2793C156.272 26.0846 156.705 19.8066 155.474 19.6281C155.474 19.6281 136.319 8.47852 128.615 15.8079C126.573 17.75 125.815 20.6883 126.404 23.4438L127.147 26.9288C127.984 30.8569 127.424 35.0033 125.337 38.4333C124.779 39.348 124.129 40.2121 123.388 41.0079L115.841 48.8818C114.549 50.2287 114.877 52.4374 116.511 53.3434C120.229 55.4044 126.39 58.5765 130.515 59.4472L130.513 59.4494Z" fill="white"/>
<path d="M131.661 60.3437C131.231 60.3437 130.795 60.2996 130.358 60.207C126.274 59.3473 120.371 56.3693 116.138 54.0239C115.151 53.475 114.485 52.5205 114.315 51.4007C114.145 50.2787 114.498 49.1655 115.283 48.3477L122.831 40.4738C123.521 39.7331 124.144 38.9087 124.678 38.0314C126.609 34.8549 127.219 30.9709 126.391 27.0913L125.648 23.6062C124.986 20.5069 125.921 17.304 128.083 15.2474C135.902 7.80994 154.057 17.9212 155.766 18.9C156.996 19.2571 157.121 21.3953 157.22 24.7723C157.247 25.7047 157.278 26.7606 157.366 27.0648L159.134 33.1995C159.42 34.1981 158.849 35.2605 157.857 35.5714L155.203 36.4002L152.455 43.9082C151.908 45.4027 150.424 46.3572 148.833 46.2293L142.996 45.7642C142.317 45.7091 141.678 46.0971 141.415 46.7275L137.478 56.4222C136.5 58.8315 134.174 60.3437 131.659 60.3437H131.661ZM130.678 58.6882C132.926 59.1622 135.179 57.9608 136.041 55.8358L139.982 46.1345C140.509 44.8759 141.775 44.1088 143.121 44.2168L148.959 44.6819C149.856 44.7524 150.691 44.2146 151 43.3725L153.872 35.5229C153.954 35.298 154.163 35.0974 154.392 35.0247L157.395 34.0878C157.586 34.0283 157.699 33.8211 157.641 33.6271L155.874 27.4925C155.737 27.0207 155.708 26.2095 155.669 24.8142C155.631 23.5423 155.556 20.939 155.203 20.3526C155.164 20.3372 155.126 20.3196 155.089 20.2975C154.901 20.1895 136.35 9.52271 129.153 16.3672C127.378 18.0557 126.615 20.7031 127.164 23.2778L127.907 26.7628C128.818 31.0304 128.141 35.3179 126.003 38.8338C125.414 39.7993 124.726 40.7075 123.959 41.5341L116.405 49.4168C115.955 49.8863 115.752 50.5234 115.852 51.1648C115.949 51.8041 116.328 52.3486 116.892 52.6616C120.28 54.5397 126.58 57.8197 130.68 58.6838L130.678 58.6882Z" fill="#231F20"/>
<path d="M137.835 26.4432C137.395 22.9912 135.622 21.5584 136.281 19.9889C136.643 19.1292 137.531 18.7192 138.036 18.4856C140.545 17.3239 143.247 18.8603 148.837 21.0845C155.781 23.8465 156.561 24.2213 158.025 23.9501C161.748 23.2624 164.541 19.4026 165.374 15.9418C165.608 14.9719 166.71 9.78947 162.808 6.2449C159.991 3.68566 155.688 2.99571 151.815 4.4682C151.71 3.3991 151.359 1.85607 150.125 0.888361C147.193 -1.40635 141.609 1.3667 139.656 2.33881C137.851 3.23598 134.56 5.20225 131.688 9.23398C131.117 8.75123 128.954 7.03626 126.168 7.36029C122.026 7.84304 120.139 12.4082 119.967 12.8425C117.966 17.9036 121.4 23.3307 123.992 27.4308C125.857 30.378 126.657 31.0327 128.042 32.3839C128.317 32.2958 128.665 32.1833 129.029 32.0665C130.111 31.7182 130.682 30.5345 130.279 29.472L130.25 29.3993C129.823 28.2728 129.616 27.0671 129.715 25.8657C129.794 24.909 130.061 23.9391 130.762 23.5511C131.895 22.9251 133.449 23.787 133.671 23.9105C135.091 24.6974 135.653 26.1324 135.874 27.2081C136.021 27.9223 137.974 27.5851 137.827 26.4432H137.835Z" fill="#231F20"/>
<path d="M26.8362 172.581L358.882 172.581C359.681 172.581 360.328 171.934 360.328 171.135V158.775C360.328 157.977 359.681 157.329 358.882 157.329L26.8362 157.329C26.0376 157.329 25.3902 157.977 25.3902 158.775V171.135C25.3902 171.934 26.0376 172.581 26.8362 172.581Z" fill="white"/>
<path d="M358.065 173.358H27.6614C25.9839 173.358 24.6172 171.993 24.6172 170.313V159.596C24.6172 157.918 25.9817 156.552 27.6614 156.552H358.065C359.743 156.552 361.109 157.916 361.109 159.596V170.313C361.109 171.991 359.745 173.358 358.065 173.358ZM27.6614 158.104C26.8392 158.104 26.169 158.772 26.169 159.596V170.313C26.169 171.136 26.8392 171.806 27.6614 171.806H358.065C358.887 171.806 359.557 171.138 359.557 170.313V159.596C359.557 158.774 358.887 158.104 358.065 158.104H27.6614Z" fill="#231F20"/>
<path d="M136.315 169.033C135.887 169.033 135.539 168.685 135.539 168.257V161.243C135.539 160.815 135.887 160.467 136.315 160.467C136.743 160.467 137.091 160.815 137.091 161.243V168.257C137.091 168.685 136.743 169.033 136.315 169.033Z" fill="#231F20"/>
<path d="M321.582 138.383L198.271 138.646C197.193 138.646 196.444 137.863 196.521 136.818L202.063 61.9611C202.197 60.1403 203.912 58.4209 205.79 58.4209L327.43 58.5289L321.582 138.383Z" fill="#231F20"/>
<path d="M198.274 139.422C197.522 139.422 196.852 139.142 196.38 138.635C195.92 138.142 195.697 137.476 195.75 136.762L201.292 61.9045C201.459 59.6363 203.562 57.6436 205.793 57.6436L327.435 57.7516C327.651 57.7516 327.856 57.8419 328.003 57.9984C328.151 58.1572 328.224 58.3688 328.208 58.5826L322.36 138.437C322.329 138.843 321.994 139.156 321.589 139.156L198.278 139.418L198.274 139.422ZM205.791 59.1976C204.356 59.1976 202.947 60.5423 202.839 62.0192L197.297 136.876C197.277 137.158 197.352 137.401 197.518 137.579C197.692 137.767 197.961 137.87 198.274 137.87L320.864 137.61L326.599 59.3056L205.793 59.1976H205.791Z" fill="#231F20"/>
<path d="M324.127 138.287H203.332C202.256 138.287 201.506 137.503 201.584 136.456L207.048 62.273C207.2 60.2119 209.211 58.3867 211.329 58.3867H330.566C331.644 58.3867 332.391 59.1715 332.314 60.2185L326.737 135.918C326.644 137.174 325.419 138.287 324.127 138.287Z" fill="white"/>
<path d="M324.13 139.063H203.334C202.587 139.063 201.917 138.783 201.445 138.276C200.984 137.78 200.759 137.112 200.812 136.398L206.277 62.2152C206.458 59.7618 208.818 57.6104 211.331 57.6104H330.568C331.316 57.6104 331.988 57.8903 332.457 58.3973C332.918 58.8933 333.143 59.5612 333.09 60.2754L327.513 135.975C327.39 137.65 325.84 139.063 324.13 139.063ZM211.331 59.1622C209.619 59.1622 207.948 60.6722 207.824 62.3298L202.36 136.512C202.34 136.797 202.415 137.041 202.582 137.222C202.757 137.41 203.023 137.513 203.334 137.513H324.13C325.011 137.513 325.904 136.711 325.966 135.862L331.543 60.163C331.563 59.8786 331.488 59.6339 331.32 59.4532C331.146 59.2658 330.879 59.1622 330.568 59.1622H211.331Z" fill="#231F20"/>
<path d="M250.51 156.569H268.996L273.607 106.559C273.662 105.96 273.25 105.508 272.653 105.508H257.291C256.116 105.508 255.133 106.431 255.02 107.639L250.508 156.569H250.51Z" fill="#231F20"/>
<path d="M253.406 156.57H271.892L276.439 106.543H257.954L253.406 156.57Z" fill="white"/>
<path d="M271.895 157.345H253.41C253.192 157.345 252.984 157.252 252.837 157.091C252.689 156.93 252.616 156.714 252.636 156.498L257.184 106.471C257.221 106.072 257.556 105.766 257.957 105.766H276.443C276.661 105.766 276.868 105.858 277.016 106.019C277.164 106.18 277.236 106.396 277.217 106.612L272.669 156.64C272.634 157.038 272.297 157.345 271.895 157.345ZM254.261 155.793H271.188L275.594 107.317H258.667L254.261 155.793Z" fill="#231F20"/>
<path d="M285.134 148.746H234.432C234.09 148.746 233.812 149.023 233.812 149.366V156.887C233.812 157.229 234.09 157.506 234.432 157.506H285.134C285.476 157.506 285.753 157.229 285.753 156.887V149.366C285.753 149.023 285.476 148.746 285.134 148.746Z" fill="#231F20"/>
<path d="M288.37 149.514H236.43V156.735H288.37V149.514Z" fill="white"/>
<path d="M288.365 157.513H236.424C235.997 157.513 235.648 157.165 235.648 156.738V149.516C235.648 149.089 235.997 148.74 236.424 148.74H288.365C288.793 148.74 289.141 149.089 289.141 149.516V156.738C289.141 157.165 288.793 157.513 288.365 157.513ZM237.2 155.962H287.589V150.292H237.2V155.962Z" fill="#231F20"/>
<path d="M58.1119 312.399C57.6842 312.399 57.3359 312.051 57.3359 311.623V245.335C57.3359 244.907 57.6842 244.559 58.1119 244.559C58.5395 244.559 58.8878 244.907 58.8878 245.335V311.623C58.8878 312.051 58.5395 312.399 58.1119 312.399Z" fill="#231F20"/>
<path d="M47.0728 288.062C46.6452 288.062 46.2969 287.714 46.2969 287.286V234.043C46.2969 233.615 46.6452 233.267 47.0728 233.267C47.5004 233.267 47.8487 233.615 47.8487 234.043V287.286C47.8487 287.714 47.5004 288.062 47.0728 288.062Z" fill="#231F20"/>
</g>
<defs>
<clipPath id="clip0_6062_13971">
<rect width="361.108" height="344" fill="white"/>
</clipPath>
</defs>
</svg>
