<?xml version="1.0" encoding="UTF-8"?>
<svg version="1.1" xmlns="http://www.w3.org/2000/svg" width="600" height="200">
<path d="M0 0 C198 0 396 0 600 0 C600 66 600 132 600 200 C402 200 204 200 0 200 C0 134 0 68 0 0 Z " fill="#FEFEFE" transform="translate(0,0)"/>
<path d="M0 0 C51.48 0 102.96 0 156 0 C156 16.5 156 33 156 50 C150.4003125 49.9690625 150.4003125 49.9690625 144.6875 49.9375 C141.05667661 49.94472482 137.42616932 49.96560526 133.79541016 49.98779297 C131.27946505 49.99588491 128.76343218 49.98986288 126.24755859 49.96923828 C122.62221643 49.94200163 119.00022478 49.96615688 115.375 50 C114.25697998 49.9805835 113.13895996 49.96116699 111.98706055 49.94116211 C106.08004257 50.04931309 102.74162278 50.57625825 98.4765625 54.83984375 C97.31065724 56.22063946 96.15159121 57.6072439 95 59 C93.68869832 60.21178461 92.35785645 61.4031209 91 62.5625 C90.3503125 63.12195313 89.700625 63.68140625 89.03125 64.2578125 C88.3609375 64.83273438 87.690625 65.40765625 87 66 C85.49872674 67.31104343 83.99869166 68.62350626 82.5 69.9375 C81.33333333 70.95833333 80.16666667 71.97916667 79 73 C75.60655558 71.51151188 73.21770033 69.5673138 70.5 67.0625 C69.20980957 65.92035034 69.20980957 65.92035034 67.89355469 64.75512695 C65 62 65 62 62.79589844 59.14111328 C58.14458991 53.63690951 54.36135943 50.8646365 47.0625 50.01831055 C39.95675586 49.56050068 32.86469563 49.67872983 25.75 49.8125 C23.25131103 49.81946691 20.752603 49.82146599 18.25390625 49.81835938 C12.16544654 49.8122992 6.09087242 49.90842395 0 50 C0 33.5 0 17 0 0 Z " fill="#040404" transform="translate(222,12)"/>
<path d="M0 0 C5.01329314 3.75996986 8.97137504 6.83365279 13.20703125 11.1953125 C17.38597541 15.40157002 21.55954221 19.52706464 27 22 C27.845625 21.21496094 28.69125 20.42992187 29.5625 19.62109375 C39.79773696 10.13345045 39.79773696 10.13345045 44.5625 5.875 C45.43068359 5.09769531 45.43068359 5.09769531 46.31640625 4.3046875 C48 3 48 3 52 1 C52 25.42 52 49.84 52 75 C34.84 75 17.68 75 0 75 C0 50.25 0 25.5 0 0 Z " fill="#040404" transform="translate(274,113)"/>
</svg>
