<?xml version="1.0" encoding="UTF-8"?>
<svg version="1.1" xmlns="http://www.w3.org/2000/svg" width="500" height="500">
<path d="M0 0 C0.645813 -0.00145344 1.29162599 -0.00290688 1.95700908 -0.00440437 C4.14790652 -0.00808973 6.33873549 -0.0045663 8.52963257 -0.0011425 C10.10545704 -0.00229332 11.68128124 -0.00388058 13.25710487 -0.00586975 C17.60832332 -0.01006847 21.95952001 -0.00796995 26.31073856 -0.00488353 C30.99517532 -0.00263184 35.67960819 -0.00610788 40.36404419 -0.00886345 C49.54913734 -0.01332263 58.73422234 -0.01234402 67.91931581 -0.00945081 C75.38066964 -0.00719735 82.84202118 -0.006884 90.30337524 -0.00797462 C91.36313902 -0.00812786 92.42290281 -0.00828109 93.51478064 -0.00843897 C95.66730738 -0.00875868 97.81983411 -0.00908289 99.97236085 -0.00941156 C120.18216905 -0.01226678 140.39197272 -0.00897866 160.60178018 -0.00361119 C177.96298715 0.00085688 195.32418744 0.00008096 212.68539429 -0.00452995 C232.82023161 -0.00987497 252.95506495 -0.01199209 273.08990288 -0.00891769 C275.23475011 -0.00859912 277.37959735 -0.00828475 279.52444458 -0.00797462 C281.10762621 -0.00774321 281.10762621 -0.00774321 282.72279131 -0.00750712 C290.17982937 -0.00664175 297.63686492 -0.00810528 305.09390259 -0.01045418 C314.1748656 -0.01325157 323.25581996 -0.01251521 332.33678198 -0.00717343 C336.97477794 -0.00453559 341.61275944 -0.00353275 346.25075531 -0.00682259 C350.48947994 -0.00978386 354.72817662 -0.00819559 358.96689868 -0.00284503 C360.50725297 -0.00172012 362.04760957 -0.00231365 363.58796239 -0.00472082 C365.66794934 -0.00772407 367.74783817 -0.00468112 369.82781982 0 C370.98732336 0.00016235 372.1468269 0.0003247 373.3414669 0.00049198 C375.91390991 0.12584114 375.91390991 0.12584114 376.91390991 1.12584114 C377.00985217 2.70738962 377.03578951 4.29323239 377.03416443 5.87768745 C377.03622643 7.41953964 377.03622643 7.41953964 377.03833008 8.99254036 C377.0347348 10.12973518 377.03113953 11.26693001 377.0274353 12.43858528 C377.02758133 13.62866692 377.02772736 14.81874855 377.02787781 16.04489326 C377.02729886 19.31747388 377.02226973 22.59001221 377.01530385 25.86258435 C377.00906959 29.27922779 377.00846646 32.69587197 377.00727844 36.11252022 C377.00416534 42.58653381 376.99595224 49.0605306 376.98592895 55.53453678 C376.97476716 62.90322034 376.9692572 70.27190469 376.96423352 77.6405946 C376.95376961 92.80235283 376.93617057 107.96409531 376.91390991 123.12584114 C375.93822021 123.11974484 375.93822021 123.11974484 374.9428196 123.11352539 C359.0831851 123.01788588 343.22451644 122.97781659 327.36464882 122.99887085 C319.6946889 123.00772612 312.02560145 122.99807938 304.35580444 122.94420052 C297.66724041 122.8972623 290.97968971 122.88572743 284.29101312 122.91592324 C280.75204336 122.93068403 277.21504599 122.92824853 273.6762886 122.88334465 C269.71643155 122.83376302 265.75921395 122.86326212 261.79916382 122.89879036 C260.63822205 122.87218834 259.47728027 122.84558632 258.28115845 122.81817818 C251.50884697 122.95577036 248.19925369 124.14911535 243.34686279 128.99159431 C241.85853207 130.69373044 240.37988083 132.40441005 238.91390991 134.12584114 C237.66707793 135.27738462 236.40093703 136.4091124 235.10140991 137.50084114 C231.54664261 140.54778455 228.09792581 143.69450371 224.66390991 146.87584114 C223.82811401 147.64988289 223.82811401 147.64988289 222.97543335 148.43956184 C221.84238759 149.48904629 220.70941244 150.53860696 219.57650757 151.58824348 C216.51899562 154.41588082 213.44708313 157.22777371 210.37509155 160.0396595 C207.29834571 162.85598315 204.22747806 165.67853105 201.16049194 168.50547981 C199.6478722 169.89564037 198.12938795 171.27909765 196.60922241 172.66099739 C194.9817754 174.14928589 193.36788269 175.65286742 191.78109741 177.18443489 C187.58436563 181.11773546 187.58436563 181.11773546 184.65219116 181.15318489 C180.608004 179.63589356 178.08695545 176.93531994 175.03890991 173.93834114 C173.69801078 172.65292749 172.3568579 171.36777849 171.01547241 170.08287239 C170.33388062 169.42367805 169.65228882 168.76448372 168.95004272 168.0853138 C165.80689386 165.06050411 162.60978864 162.09470634 159.41390991 159.12584114 C158.16620492 157.96211002 156.91881012 156.79804624 155.67172241 155.63365364 C155.05329468 155.05647591 154.43486694 154.47929817 153.79769897 153.8846302 C151.89574922 152.10888552 149.99458328 150.33230512 148.09359741 148.55552864 C141.39895833 142.30000858 134.69269787 136.05802117 127.94857788 129.85582161 C125.90476433 127.97451712 123.87841493 126.09034616 121.91390991 124.12584114 C119.57577773 123.81411144 119.57577773 123.81411144 116.820755 123.85409737 C115.74243912 123.84437904 114.66412323 123.83466072 113.5531311 123.8246479 C111.7709317 123.82376419 111.7709317 123.82376419 109.95272827 123.82286263 C108.08201408 123.81020363 108.08201408 123.81020363 106.17350769 123.79728889 C103.45823487 123.78031466 100.74322626 123.76696472 98.02793694 123.75975037 C93.738595 123.74828701 89.44940647 123.72284186 85.16014099 123.69543648 C78.37926609 123.65376073 71.5983839 123.62135659 64.81744152 123.59296232 C52.66586232 123.54199916 40.51434656 123.47995746 28.362876 123.40762192 C24.09474284 123.38264251 19.82663008 123.36323688 15.55845058 123.34823978 C12.2875138 123.33568035 9.01661019 123.316988 5.74569702 123.29942513 C4.55553986 123.29681175 3.36538269 123.29419838 2.13916016 123.29150581 C1.06366409 123.28460732 -0.01183197 123.27770882 -1.11991882 123.27060127 C-2.06031541 123.26674636 -3.00071199 123.26289145 -3.96960545 123.25891972 C-6.08609009 123.12584114 -6.08609009 123.12584114 -7.08609009 122.12584114 C-7.18417034 120.55928655 -7.21240886 118.98830962 -7.21307373 117.41868782 C-7.21589355 116.40064568 -7.21871338 115.38260353 -7.22161865 114.33371162 C-7.21959442 113.20743858 -7.21757019 112.08116554 -7.21548462 110.92076302 C-7.21723694 109.74204124 -7.21898926 108.56331947 -7.22079468 107.34887886 C-7.22445276 104.10722506 -7.22357982 100.86561181 -7.22041559 97.62395859 C-7.21789153 94.23847681 -7.22022966 90.85299782 -7.22180176 87.46751595 C-7.22362332 81.78119098 -7.2212175 76.09487898 -7.21646118 70.40855598 C-7.21101858 63.82556096 -7.21278125 57.24259691 -7.21828759 50.65960264 C-7.2228191 45.01714801 -7.22346908 39.37470273 -7.22084892 33.73224688 C-7.21928635 30.35806362 -7.21909181 26.98389493 -7.22238541 23.6097126 C-7.22491021 19.85009318 -7.22107376 16.09053416 -7.21548462 12.33091927 C-7.21750885 11.20464622 -7.21953308 10.07837318 -7.22161865 8.91797066 C-7.21879883 7.89992851 -7.215979 6.88188637 -7.21307373 5.83299446 C-7.2126967 4.94291946 -7.21231968 4.05284447 -7.21193123 3.1357975 C-6.94110491 -1.1898871 -3.61280166 0.00050586 0 0 Z " fill="#103F41" transform="translate(65.08609008789063,32.87415885925293)"/>
<path d="M0 0 C3.19219688 1.59609844 5.00909495 2.70579589 7.5625 5 C8.60083984 5.928125 8.60083984 5.928125 9.66015625 6.875 C13.22404094 10.11164987 16.78678948 13.34948931 20.34375 16.59375 C22.54352741 18.58648953 24.75955218 20.5533814 27 22.5 C31.17729083 26.12944941 35.25537239 29.8647902 39.34375 33.59375 C42.16198876 36.14674276 45.01713192 38.65088304 47.89453125 41.13671875 C49.53995646 42.59287427 51.15670725 44.08144765 52.76171875 45.58203125 C53.24576172 46.03320312 53.72980469 46.484375 54.22851562 46.94921875 C55.61935165 48.24882189 57.0032225 49.55586728 58.38671875 50.86328125 C60.89673577 52.91556721 62.93956904 54.00191351 66 55 C66.9178125 54.14277344 67.835625 53.28554688 68.78125 52.40234375 C80.13287809 41.81884766 80.13287809 41.81884766 85.9453125 36.8046875 C88.66924703 34.41218226 91.33343269 31.95594058 94 29.5 C97.90841623 25.90106554 101.85558756 22.35789387 105.87109375 18.87890625 C108.63749517 16.43736665 111.34875406 13.93713464 114.0625 11.4375 C126.51256372 0 126.51256372 0 129 0 C129 60.72 129 121.44 129 184 C86.43 184 43.86 184 0 184 C0 123.28 0 62.56 0 0 Z " fill="#103F41" transform="translate(186,282)"/>
<path d="M0 0 C0 60.72 0 121.44 0 184 C-0.33 184 -0.66 184 -1 184 C-1.33 125.26 -1.66 66.52 -2 6 C-2.66 6 -3.32 6 -4 6 C-4 6.99 -4 7.98 -4 9 C-5.65 9 -7.3 9 -9 9 C-9.33 9.66 -9.66 10.32 -10 11 C-10.66 11 -11.32 11 -12 11 C-12 11.66 -12 12.32 -12 13 C-13.32 13.33 -14.64 13.66 -16 14 C-4.57142857 0 -4.57142857 0 0 0 Z " fill="#173337" transform="translate(315,282)"/>
<path d="M0 0 C11.88 0 23.76 0 36 0 C36 0.33 36 0.66 36 1 C35.1121582 1.01458252 34.22431641 1.02916504 33.30957031 1.04418945 C30.00672038 1.10534534 26.70469085 1.17951378 23.40234375 1.26245117 C21.97472086 1.29564794 20.54696837 1.32369631 19.11914062 1.34643555 C17.06324185 1.38008013 15.00852488 1.43239562 12.953125 1.48828125 C11.09929199 1.52755737 11.09929199 1.52755737 9.20800781 1.56762695 C5.77765859 2.02996702 4.58763479 2.83294596 2 5 C1.01 5 0.02 5 -1 5 C-0.67 3.35 -0.34 1.7 0 0 Z " fill="#243737" transform="translate(59,33)"/>
<path d="M0 0 C2.97 0 5.94 0 9 0 C8.01 0.66 7.02 1.32 6 2 C5.01 2.804375 5.01 2.804375 4 3.625 C2 5 2 5 -1 5 C-0.67 3.35 -0.34 1.7 0 0 Z " fill="#113635" transform="translate(59,33)"/>
<path d="M0 0 C0.66 0.33 1.32 0.66 2 1 C-1.3 3.97 -4.6 6.94 -8 10 C-8 7 -8 7 -7 5 C-6.34 5 -5.68 5 -5 5 C-4.67 4.01 -4.34 3.02 -4 2 C-2.0625 0.75 -2.0625 0.75 0 0 Z " fill="#16383A" transform="translate(282,184)"/>
<path d="M0 0 C0.66 0.33 1.32 0.66 2 1 C1.54625 1.598125 1.0925 2.19625 0.625 2.8125 C-0.63295913 4.50590652 -1.82984724 6.24477086 -3 8 C-3.66 8 -4.32 8 -5 8 C-6.33783393 8.31478446 -7.67203709 8.64587656 -9 9 C-6 6 -3 3 0 0 Z " fill="#133938" transform="translate(265,325)"/>
<path d="M0 0 C0 3 0 3 -2 5.1875 C-2.66 5.785625 -3.32 6.38375 -4 7 C-4.99 6.67 -5.98 6.34 -7 6 C-6.67 4.68 -6.34 3.36 -6 2 C-4.68 2 -3.36 2 -2 2 C-1.34 1.34 -0.68 0.68 0 0 Z " fill="#163739" transform="translate(255,334)"/>
</svg>
